<svg xmlns="http://www.w3.org/2000/svg" width="28.249" height="24.718" viewBox="0 0 28.249 24.718"><defs><style>.a{fill:#fff;}</style></defs><g transform="translate(0 -30.522)"><path class="a" d="M189.19,199.467a3.531,3.531,0,1,1-4.994,0,3.531,3.531,0,0,1,4.994,0" transform="translate(-172.57 -158.201)"/><path class="a" d="M24.717,34.053h-2.44l-1.766-3.531H7.736L5.971,34.055l-2.436,0A3.537,3.537,0,0,0,.009,37.589L0,51.708A3.535,3.535,0,0,0,3.531,55.24H24.717a3.535,3.535,0,0,0,3.531-3.531V37.584A3.535,3.535,0,0,0,24.717,34.053ZM14.124,50.826a7.062,7.062,0,1,1,7.062-7.062,7.07,7.07,0,0,1-7.062,7.062Z"/></g></svg>